<?xml version="1.0" standalone="no"?>
<!DOCTYPE svg PUBLIC "-//W3C//DTD SVG 20010904//EN"
 "http://www.w3.org/TR/2001/REC-SVG-20010904/DTD/svg10.dtd">
<svg version="1.0" xmlns="http://www.w3.org/2000/svg"
 width="300.000000pt" height="341.000000pt" viewBox="0 0 300.000000 341.000000"
 preserveAspectRatio="xMidYMid meet">
<metadata>
Created by potrace 1.10, written by Peter Selinger 2001-2011
</metadata>
<g transform="translate(0.000000,341.000000) scale(0.100000,-0.100000)"
fill="#000000" stroke="none">
<path d="M286 3090 c-25 -27 -46 -52 -46 -56 0 -4 1 -5 3 -3 2 2 25 28 52 57
26 28 45 52 43 52 -3 0 -26 -22 -52 -50z"/>
<path d="M503 3130 c-95 -19 -178 -85 -219 -174 l-24 -51 0 -1075 1 -1075 489
-190 c270 -104 545 -212 613 -239 67 -26 129 -48 137 -48 8 0 70 22 137 48 68
27 343 135 613 239 l489 190 1 1075 0 1075 -24 51 c-31 66 -85 120 -155 153
l-56 26 -980 2 c-539 0 -999 -3 -1022 -7z m2052 -54 c52 -24 101 -72 132 -129
17 -30 18 -100 21 -1093 3 -1204 13 -1075 -88 -1112 -53 -19 -295 -113 -635
-247 -88 -34 -233 -90 -322 -124 l-161 -63 -69 26 c-85 31 -96 35 -493 191
-397 156 -393 154 -508 198 -51 19 -104 42 -117 51 l-25 17 2 1062 c3 994 4
1064 21 1094 31 57 81 106 132 129 l50 23 1005 0 1005 1 50 -24z"/>
<path d="M527 2969 c-78 -18 -137 -63 -163 -126 -11 -26 -14 -164 -15 -726 -1
-668 -1 -695 18 -738 24 -54 79 -104 130 -118 21 -6 125 -11 231 -11 213 0
215 1 233 62 16 55 9 156 -13 183 -18 24 -24 25 -171 27 l-152 3 -3 219 c-2
169 1 221 10 228 7 4 57 8 110 8 130 0 138 8 138 135 0 83 -2 94 -23 113 -21
19 -35 22 -118 22 -61 0 -99 4 -107 12 -9 9 -12 73 -12 224 0 194 2 213 18
218 9 3 77 5 151 5 171 0 172 1 178 128 5 84 4 89 -20 116 l-26 27 -178 -1
c-98 -1 -195 -5 -216 -10z m403 -129 l0 -100 -172 0 -173 0 2 -262 2 -263 131
0 130 0 0 -102 0 -103 -132 0 -133 0 0 -265 0 -265 173 0 172 0 0 -101 0 -101
-207 4 c-173 3 -213 6 -239 20 -44 24 -81 71 -94 118 -7 26 -10 265 -8 717 3
779 -3 724 97 776 54 27 56 27 253 27 l198 0 0 -100z"/>
<path d="M2310 2969 c-134 -6 -186 -24 -229 -78 -16 -20 -34 -54 -40 -76 -7
-27 -11 -250 -11 -710 l0 -670 24 -50 c13 -27 36 -62 52 -76 51 -46 81 -52
241 -47 166 4 206 17 251 82 35 52 42 90 42 242 0 176 1 175 -123 175 -128 0
-137 -9 -137 -146 0 -50 -5 -86 -12 -93 -17 -17 -44 -15 -62 4 -14 14 -16 81
-16 594 0 567 0 580 20 590 11 6 31 8 44 4 24 -6 24 -9 28 -114 4 -140 5 -142
140 -137 53 1 101 6 105 11 4 4 9 76 11 159 4 165 -4 211 -44 265 -49 64 -111
80 -284 71z m164 -39 c54 -12 87 -38 114 -90 20 -40 22 -58 22 -197 l0 -153
-95 0 -95 0 0 130 0 130 -80 0 -80 0 0 -637 0 -638 80 3 80 4 0 124 0 124 95
0 95 0 0 -153 c0 -139 -2 -157 -22 -197 -38 -73 -83 -90 -237 -90 -69 0 -142
5 -161 10 -41 11 -94 61 -109 103 -7 19 -11 255 -11 715 0 634 1 690 18 721
22 44 58 70 119 87 56 15 211 18 267 4z"/>
<path d="M1044 2949 c-18 -20 -19 -49 -19 -834 0 -950 -13 -855 119 -855 99 0
123 6 132 32 3 10 6 164 6 341 0 185 4 329 9 339 8 15 23 18 83 18 130 0 218
49 244 137 8 28 12 139 12 364 0 360 -3 376 -69 432 -48 40 -90 47 -302 47
-186 0 -197 -1 -215 -21z m420 -19 c54 -12 87 -38 114 -91 22 -44 23 -47 20
-379 l-3 -335 -24 -34 c-39 -54 -89 -71 -213 -71 l-108 0 0 -365 0 -365 -95 0
-95 0 0 825 0 825 183 0 c100 0 200 -5 221 -10z"/>
<path d="M1250 2482 c0 -148 2 -271 4 -273 2 -2 38 -3 80 -1 l76 4 0 269 0
269 -80 0 -80 0 0 -268z m118 1 c2 -219 1 -232 -16 -238 -11 -3 -31 -1 -46 4
l-26 10 3 221 c2 239 3 243 57 238 l25 -3 3 -232z"/>
<path d="M1720 2950 c-17 -17 -20 -34 -20 -102 -4 -1387 -2 -1549 16 -1570 17
-18 29 -19 121 -16 66 2 107 8 115 16 10 10 14 177 16 830 3 964 19 862 -133
862 -82 0 -98 -3 -115 -20z m220 -835 l0 -825 -105 0 -105 0 0 825 0 825 105
0 105 0 0 -825z"/>
<path d="M474 1161 c-12 -5 -31 -22 -43 -37 -19 -24 -21 -39 -21 -144 0 -116
0 -118 29 -149 l29 -31 145 0 c137 0 146 1 181 25 l36 24 24 -24 c33 -33 64
-31 106 5 32 26 42 29 106 30 65 0 72 -2 99 -30 33 -35 66 -38 111 -11 30 18
31 18 55 0 13 -10 32 -19 42 -19 29 0 67 45 67 80 0 16 3 30 6 30 4 0 22 -16
41 -35 19 -19 41 -35 50 -35 8 0 33 17 54 39 21 21 41 36 44 33 3 -3 5 -19 5
-37 0 -38 32 -75 66 -75 29 0 74 41 74 67 1 11 6 6 15 -14 7 -17 22 -36 34
-42 11 -6 77 -11 155 -11 130 0 135 1 166 26 l31 26 38 -27 c39 -26 42 -27
175 -23 132 3 136 4 163 30 22 22 27 39 31 87 3 44 0 67 -11 85 -13 20 -14 29
-4 55 9 26 9 37 -3 59 -26 46 -53 53 -192 50 -123 -3 -129 -4 -154 -30 -34
-33 -44 -110 -21 -155 15 -29 15 -32 -6 -61 l-23 -30 -24 19 c-16 11 -41 19
-68 19 l-43 0 20 26 c16 20 18 31 10 51 -12 33 -4 43 35 43 59 0 87 59 46 100
-18 18 -33 20 -164 20 l-144 0 -28 -30 -29 -30 -21 27 c-15 19 -30 26 -54 26
-29 0 -43 -10 -100 -72 l-65 -72 -65 70 c-77 83 -107 95 -144 57 -25 -24 -26
-29 -26 -151 0 -69 -3 -125 -7 -125 -5 1 -42 60 -83 132 -81 142 -113 173
-164 163 -43 -8 -58 -25 -131 -151 -37 -63 -70 -116 -74 -119 -10 -6 -23 98
-21 170 1 43 -4 55 -25 75 -25 24 -33 25 -168 27 -78 1 -152 -2 -163 -6z m314
-43 c7 -7 12 -25 12 -40 0 -21 -5 -28 -19 -28 -11 0 -27 -3 -37 -7 -14 -5 -16
-2 -12 15 6 22 4 22 -108 22 l-114 0 0 -95 0 -95 113 0 113 0 0 36 0 36 -58
-4 c-57 -3 -58 -3 -58 25 l0 27 93 0 92 0 -5 -77 c-5 -70 -7 -79 -30 -91 -34
-17 -293 -13 -312 6 -19 19 -18 243 1 265 11 15 36 17 165 17 105 0 156 -4
164 -12z m404 -138 l86 -150 -42 0 c-38 0 -44 3 -59 35 l-17 35 -94 0 -94 0
-21 -35 c-17 -30 -26 -35 -57 -35 -35 0 -36 1 -22 23 9 12 48 79 88 150 72
126 73 127 109 127 36 -1 36 -1 123 -150z m272 75 c33 -42 64 -82 70 -91 9
-12 24 2 81 76 58 75 74 90 97 90 l28 0 0 -150 0 -150 -32 0 -33 0 3 107 c2
63 0 104 -5 98 -5 -5 -35 -45 -67 -87 -32 -43 -62 -78 -66 -78 -8 0 -68 76
-116 147 l-25 38 2 -110 2 -110 -27 0 -27 0 -2 148 -2 147 30 0 c26 0 39 -11
89 -75z m676 50 l0 -25 -120 0 -120 0 0 -34 0 -33 70 5 70 5 0 -33 0 -33 -70
5 -70 5 0 -38 0 -39 120 0 120 0 0 -27 0 -28 -155 0 -155 0 0 148 0 147 155 0
155 0 0 -25z m398 13 c17 -17 15 -55 -4 -62 -27 -10 -44 -7 -44 9 0 12 -18 15
-100 15 l-100 0 0 -32 0 -33 103 3 c129 4 152 -4 160 -55 4 -21 4 -55 0 -76
-5 -32 -10 -38 -42 -48 -21 -6 -85 -9 -149 -7 -119 3 -137 10 -144 57 -2 21 2
26 30 32 27 5 32 4 32 -12 0 -17 9 -19 105 -19 l105 0 0 35 0 35 -114 0 c-136
0 -146 6 -146 81 0 89 1 89 158 89 94 0 142 -4 150 -12z m-1928 -82 c0 -2 -6
-16 -14 -32 -10 -19 -12 -33 -5 -45 14 -26 11 -31 -13 -27 -19 2 -24 10 -26
42 -4 52 3 66 33 66 14 0 25 -2 25 -4z m1177 -118 c-2 -18 -4 -4 -4 32 0 36 2
50 4 33 2 -18 2 -48 0 -65z"/>
<path d="M1033 1018 c-15 -29 -29 -56 -31 -60 -2 -5 26 -8 63 -8 37 0 65 3 63
8 -15 33 -59 112 -63 112 -3 0 -17 -24 -32 -52z"/>
<path d="M1130 690 c-64 -3 -124 -10 -135 -17 -16 -10 86 -12 499 -13 456 0
517 2 506 15 -10 12 -71 15 -384 17 -204 2 -423 1 -486 -2z"/>
<path d="M1004 626 c33 -27 455 -196 492 -196 36 0 471 171 502 198 l27 23
-25 -7 c-14 -3 -129 -46 -256 -95 -127 -49 -236 -89 -244 -89 -8 0 -117 40
-244 89 -127 49 -242 92 -256 95 -25 7 -25 7 4 -18z"/>
<path d="M2705 3090 c27 -30 51 -57 53 -60 3 -3 0 4 -6 15 -6 11 -30 38 -53
60 -43 39 -43 39 6 -15z"/>
<path d="M182 1813 c-1 -595 1 -1084 6 -1086 6 -5 6 752 -1 1778 -1 215 -3
-97 -5 -692z"/>
<path d="M2810 1808 c-3 -598 -2 -1084 3 -1079 4 4 6 493 5 1087 l-3 1079 -5
-1087z"/>
<path d="M1435 220 c22 -11 51 -19 65 -19 14 0 43 8 65 19 41 20 38 20 -27 -1
-30 -10 -46 -10 -75 0 -66 21 -69 21 -28 1z"/>
</g>
</svg>
