<svg xmlns="http://www.w3.org/2000/svg" xmlns:xlink="http://www.w3.org/1999/xlink" width="512" zoomAndPan="magnify" viewBox="0 0 384 383.999986" height="512" preserveAspectRatio="xMidYMid meet" version="1.0"><path fill="#ffffff" d="M 348.910156 160.007812 L 167.351562 160.007812 L 162.550781 184.609375 L 334.210938 184.609375 L 327.3125 219.769531 C 384.515625 140.015625 401.710938 58.320312 363.683594 20.304688 C 320.101562 -23.28125 219.085938 5.699219 129.394531 84.382812 L 363.324219 84.382812 L 348.925781 159.984375 L 348.925781 160.007812 Z M 140.640625 298.644531 L 20.605469 298.644531 L 42.277344 185.664062 C -3.167969 258.265625 -14.316406 329.0625 20.316406 363.695312 C 67.714844 411.097656 183.035156 372.660156 277.835938 277.847656 C 287.617188 268.074219 296.960938 257.898438 305.867188 247.320312 L 150.539062 247.320312 L 140.628906 298.644531 Z M 61.714844 84.359375 L 129.394531 84.359375 C 121.410156 91.367188 113.664062 98.628906 106.152344 106.140625 C 80.59375 131.746094 59.113281 158.820312 42.3125 185.652344 L 61.753906 84.371094 Z M 61.714844 84.359375 " fill-opacity="1" fill-rule="nonzero"/></svg>